<?xml version="1.0" standalone="no"?>
<!DOCTYPE svg PUBLIC "-//W3C//DTD SVG 20010904//EN"
 "http://www.w3.org/TR/2001/REC-SVG-20010904/DTD/svg10.dtd">
<svg version="1.0" xmlns="http://www.w3.org/2000/svg"
 width="704.000000pt" height="1280.000000pt" viewBox="0 0 704.000000 1280.000000"
 preserveAspectRatio="xMidYMid meet">
<metadata>
Created by potrace 1.15, written by Peter Selinger 2001-2017
</metadata>
<g transform="translate(0.000000,1280.000000) scale(0.100000,-0.100000)"
fill="#000000" stroke="none">
<path d="M3150 12794 c-616 -51 -1130 -239 -1588 -581 -126 -94 -397 -356
-499 -483 -244 -304 -449 -694 -594 -1132 -52 -155 -125 -441 -154 -593 -10
-54 -40 -148 -75 -235 -154 -385 -224 -669 -236 -970 -21 -486 156 -812 538
-989 101 -47 171 -68 393 -117 94 -20 171 -38 173 -39 2 -1 -24 -45 -56 -96
-241 -383 -400 -839 -471 -1349 -52 -379 -53 -788 -2 -1315 69 -716 92 -1214
73 -1637 -29 -636 -110 -998 -283 -1260 -39 -59 -49 -126 -25 -163 27 -41 75
-65 129 -65 134 0 257 151 341 420 96 308 136 678 136 1255 0 426 -23 813 -80
1385 -45 449 -50 800 -15 1135 61 589 238 1116 517 1544 27 42 51 77 52 78 1
2 47 -4 102 -12 215 -32 306 -15 320 61 6 31 -28 224 -61 354 -3 9 20 37 54
67 l59 53 60 -59 c144 -141 331 -237 520 -266 41 -7 43 -9 37 -34 -49 -189
-72 -526 -56 -805 22 -381 73 -689 201 -1216 150 -617 192 -910 192 -1335 -1
-369 -37 -629 -128 -909 -66 -202 -133 -336 -249 -497 -74 -104 -203 -358
-260 -513 -47 -127 -109 -373 -126 -496 -19 -138 -17 -433 4 -550 56 -307 172
-577 349 -810 71 -94 446 -550 480 -585 11 -11 -21 42 -72 118 -95 143 -170
279 -170 308 0 10 15 27 34 38 41 26 61 69 53 118 -4 20 -32 79 -63 132 -32
53 -65 110 -75 126 -9 17 -38 79 -64 139 -171 402 -187 833 -50 1305 73 252
208 537 329 696 128 167 239 441 301 739 42 208 57 369 57 631 1 421 -47 767
-177 1287 -222 882 -273 1474 -174 2004 l21 111 76 13 c241 41 441 160 516
308 l27 54 49 -69 c459 -652 601 -1439 401 -2216 -16 -61 -43 -148 -59 -192
-59 -160 -124 -415 -156 -610 -47 -288 -48 -657 -2 -900 35 -183 91 -350 171
-510 94 -187 173 -291 397 -521 265 -274 373 -434 483 -719 89 -231 134 -466
142 -752 10 -353 -44 -714 -153 -1011 -62 -169 -65 -183 -54 -218 14 -43 70
-91 115 -100 80 -15 130 34 215 209 72 150 119 284 164 470 188 774 61 1501
-352 2022 -30 39 -128 144 -217 235 -177 181 -207 217 -285 335 -144 220 -242
504 -281 815 -16 124 -16 436 0 575 29 253 87 513 162 730 130 377 185 760
160 1110 -23 333 -91 599 -235 929 l-17 39 28 -7 c151 -34 295 -47 381 -35
118 16 240 52 358 105 8 4 9 -10 2 -48 -17 -94 -14 -412 5 -514 67 -365 244
-633 557 -843 182 -123 274 -197 371 -299 229 -240 375 -549 434 -915 55 -345
27 -804 -76 -1207 -22 -85 -73 -254 -115 -375 -180 -527 -205 -792 -105 -1106
72 -223 188 -398 420 -629 227 -226 317 -293 415 -306 80 -11 166 59 166 136
0 49 -31 90 -128 172 -414 347 -622 724 -622 1127 0 220 32 369 159 745 88
260 140 453 171 631 135 791 -4 1434 -401 1859 -96 102 -192 181 -353 288
-127 86 -260 206 -330 299 -93 123 -171 312 -196 473 -14 91 -14 320 0 416 12
88 59 290 67 290 3 0 30 -23 60 -50 76 -70 127 -103 235 -155 189 -90 431
-129 671 -107 162 16 218 30 327 83 193 95 320 285 378 562 26 128 23 454 -7
612 -60 324 -153 577 -296 811 l-62 100 -28 165 c-156 937 -606 1683 -1289
2138 -450 300 -953 471 -1606 547 -129 15 -485 26 -580 18z"/>
</g>
</svg>
