<?xml version="1.0" standalone="no"?>
<!DOCTYPE svg PUBLIC "-//W3C//DTD SVG 20010904//EN"
 "http://www.w3.org/TR/2001/REC-SVG-20010904/DTD/svg10.dtd">
<svg version="1.0" xmlns="http://www.w3.org/2000/svg"
 width="1113.000000pt" height="1280.000000pt" viewBox="0 0 1113.000000 1280.000000"
 preserveAspectRatio="xMidYMid meet">
<metadata>
Created by potrace 1.15, written by Peter Selinger 2001-2017
</metadata>
<g transform="translate(0.000000,1280.000000) scale(0.100000,-0.100000)"
fill="#000000" stroke="none">
<path d="M5580 12710 c-1004 -104 -1898 -641 -2705 -1625 -452 -551 -1136
-1651 -1667 -2682 -60 -116 -114 -215 -121 -220 -7 -5 -52 -24 -102 -42 -122
-45 -334 -149 -420 -207 -101 -68 -187 -145 -244 -221 -65 -87 -149 -253 -163
-323 -30 -146 46 -258 207 -307 50 -15 95 -18 275 -17 218 0 327 11 655 64
106 18 197 25 155 13 -18 -5 -88 -106 -124 -180 -49 -99 -67 -187 -73 -348 -6
-171 1 -236 77 -699 64 -394 83 -550 75 -606 -15 -97 -70 -174 -301 -422 -264
-283 -365 -409 -465 -583 -221 -385 -261 -804 -118 -1250 42 -133 44 -208 7
-256 -14 -20 -78 -70 -141 -112 -121 -81 -164 -122 -197 -188 -84 -163 81
-291 180 -141 41 63 72 92 165 154 112 75 189 148 223 213 24 45 27 60 26 150
0 87 -5 114 -37 213 -151 464 -101 834 165 1224 71 104 196 250 383 448 228
241 316 376 335 511 12 83 -5 234 -75 669 -72 447 -77 485 -78 630 -1 218 37
312 189 470 97 101 122 138 109 159 -3 6 11 13 32 17 41 8 34 11 183 -83 141
-89 240 -140 385 -198 102 -41 129 -56 127 -69 -2 -10 7 -59 19 -109 20 -79
23 -118 23 -277 -1 -158 -4 -197 -22 -265 -50 -184 -101 -251 -359 -468 -217
-183 -292 -266 -358 -397 -60 -120 -80 -201 -79 -330 1 -143 23 -216 134 -445
96 -197 110 -239 117 -337 21 -285 -148 -574 -416 -712 -118 -61 -140 -90
-103 -137 72 -88 401 137 536 368 26 43 61 121 78 173 30 90 32 103 32 255 1
190 0 195 -116 432 -104 214 -119 258 -125 374 -6 109 5 171 47 265 60 134
149 234 370 416 260 214 331 318 379 555 16 75 21 139 21 250 0 126 -17 293
-35 354 -5 14 2 14 72 0 53 -10 141 -15 273 -15 189 0 206 1 400 40 21 4 22 3
8 -5 -9 -6 -62 -72 -119 -147 -263 -352 -449 -708 -528 -1016 -44 -171 -54
-261 -48 -427 7 -217 45 -329 174 -528 79 -121 123 -250 123 -360 0 -190 -70
-272 -406 -473 -93 -56 -202 -127 -243 -158 -138 -105 -220 -232 -243 -375
-16 -108 -2 -166 72 -293 169 -288 203 -538 103 -746 -28 -58 -57 -95 -148
-188 -160 -163 -371 -407 -396 -458 -19 -38 -20 -49 -10 -83 14 -48 44 -69 97
-69 54 0 82 23 219 178 61 69 173 191 250 271 189 197 240 294 266 504 23 192
-20 380 -142 623 -93 184 -100 224 -59 309 43 88 124 155 350 290 192 114 261
164 346 250 125 126 174 241 174 411 0 159 -64 348 -172 507 -51 76 -93 166
-114 247 -24 89 -24 286 0 405 68 347 283 759 603 1154 179 221 195 243 189
264 -2 11 31 -16 77 -61 95 -92 180 -149 279 -188 39 -16 64 -30 57 -33 -34
-11 -216 -166 -340 -290 -211 -212 -279 -331 -287 -502 -5 -121 9 -175 88
-326 150 -286 199 -506 154 -693 -20 -88 -53 -139 -127 -202 -153 -130 -298
-318 -387 -503 -46 -96 -112 -322 -134 -461 -46 -291 22 -573 128 -535 41 15
48 51 26 122 -11 35 -25 95 -31 133 -35 221 79 617 251 880 75 114 115 160
205 233 162 132 217 252 216 473 0 186 -42 331 -170 590 -73 146 -83 173 -88
235 -7 91 19 171 92 280 63 96 242 273 403 400 84 66 115 97 119 117 l6 28
111 0 c198 0 448 57 660 149 28 12 53 18 58 13 5 -5 3 -9 -5 -9 -17 0 -390
-211 -487 -276 -41 -28 -116 -91 -166 -141 -140 -141 -194 -265 -194 -443 0
-119 19 -190 129 -476 137 -359 194 -564 222 -807 16 -140 6 -404 -20 -531
-42 -210 -131 -464 -232 -668 -154 -312 -318 -508 -610 -731 -226 -171 -268
-215 -332 -346 -39 -77 -89 -228 -108 -319 -18 -86 -16 -247 4 -325 28 -107
98 -235 193 -354 135 -169 168 -196 231 -196 35 0 93 60 93 96 0 43 -33 101
-118 205 -158 194 -187 260 -186 424 1 89 6 127 27 197 62 205 111 269 329
435 427 324 667 672 848 1229 88 270 114 426 114 679 0 345 -56 601 -232 1060
-89 233 -111 300 -122 367 -20 129 28 256 138 359 83 79 153 125 400 264 106
60 201 117 210 126 17 15 21 14 63 -23 82 -72 163 -132 240 -179 l77 -46 -75
-59 c-227 -178 -307 -352 -258 -561 30 -126 81 -213 247 -415 91 -111 179
-248 209 -326 28 -72 30 -216 5 -312 -38 -149 -135 -305 -246 -395 -93 -76
-225 -216 -274 -292 -125 -195 -175 -363 -195 -664 -23 -327 -33 -424 -57
-522 -26 -105 -25 -134 2 -161 39 -40 92 -1 117 85 30 102 47 232 62 471 21
330 47 463 117 603 68 135 139 222 298 363 121 108 182 185 237 297 80 167
109 332 84 482 -21 123 -119 294 -277 483 -163 195 -209 293 -202 428 6 128
59 208 224 339 48 38 87 77 90 90 4 13 9 23 13 23 3 0 42 -7 86 -15 242 -44
503 22 837 212 l67 38 33 -34 c28 -28 30 -32 11 -26 -39 11 -90 -23 -140 -94
-26 -36 -106 -140 -179 -231 -205 -257 -266 -362 -305 -528 -18 -72 -20 -107
-16 -202 3 -63 13 -140 22 -170 9 -30 58 -134 110 -230 153 -288 250 -536 291
-745 26 -131 25 -341 -4 -463 -42 -183 -99 -266 -422 -617 -319 -347 -437
-503 -539 -715 -87 -179 -124 -382 -123 -675 0 -174 18 -297 62 -416 51 -141
121 -243 290 -424 57 -60 141 -154 188 -209 116 -134 177 -156 237 -84 63 74
28 136 -242 430 -199 215 -240 279 -284 443 -19 69 -22 106 -22 275 -1 311 35
467 149 660 88 150 190 279 399 505 357 386 439 494 490 646 111 325 87 666
-76 1084 -24 61 -99 222 -168 359 l-125 248 -4 97 c-8 199 37 299 265 583 85
106 170 219 190 251 40 66 53 128 32 154 -8 10 10 -2 39 -27 144 -121 255
-206 334 -257 l87 -56 -83 -88 c-198 -210 -296 -414 -296 -613 0 -148 48 -264
177 -433 43 -56 104 -136 136 -177 111 -145 137 -248 87 -345 -12 -25 -90
-114 -174 -200 -175 -179 -214 -242 -223 -355 -7 -81 4 -127 73 -297 121 -303
143 -514 69 -677 -32 -69 -114 -155 -196 -203 -37 -22 -74 -48 -84 -59 -24
-27 -16 -71 17 -89 23 -13 32 -14 65 -2 66 24 159 90 221 155 114 123 158 257
149 455 -7 146 -38 271 -119 474 -102 254 -95 281 135 516 177 181 215 241
225 356 10 137 -33 225 -244 490 -109 138 -160 233 -177 328 -30 177 64 384
272 600 l96 99 95 -29 c85 -25 110 -28 230 -28 123 1 142 3 210 29 94 35 168
77 238 134 l54 44 79 -78 78 -77 -27 -14 c-15 -8 -34 -20 -42 -28 -8 -7 -91
-61 -185 -120 -391 -247 -525 -399 -610 -690 -34 -116 -46 -310 -22 -366 8
-20 66 -114 130 -210 312 -472 429 -768 387 -974 -14 -67 -159 -443 -215 -558
-21 -41 -80 -132 -132 -203 -53 -71 -141 -199 -198 -284 -215 -327 -229 -360
-229 -540 1 -151 15 -201 130 -443 98 -207 129 -287 155 -394 26 -108 28 -271
5 -388 -9 -44 -16 -95 -16 -113 0 -88 75 -136 151 -96 63 32 109 203 109 403
-1 198 -45 353 -180 642 -115 245 -133 303 -128 406 3 65 10 93 36 145 39 80
240 384 362 548 110 149 146 218 250 481 121 306 132 344 133 474 0 79 -6 135
-21 197 -52 213 -184 480 -385 783 -118 177 -127 196 -127 275 0 146 74 327
182 445 79 86 134 128 379 285 112 72 219 147 237 166 l34 35 83 -55 c46 -31
124 -76 174 -101 l91 -46 -33 -29 c-42 -36 -92 -128 -112 -205 -19 -76 -19
-237 0 -351 9 -49 41 -161 71 -249 124 -358 135 -396 141 -473 10 -131 -16
-203 -139 -396 -90 -138 -190 -346 -224 -461 -39 -136 -37 -220 11 -360 34
-99 39 -123 43 -235 7 -198 -25 -321 -160 -620 -39 -85 -92 -203 -119 -262
-51 -113 -60 -165 -33 -192 8 -9 27 -16 40 -16 46 0 49 4 241 430 115 255 173
465 173 631 0 81 -25 210 -60 313 -18 55 -30 110 -30 143 0 113 109 373 239
571 119 180 151 270 151 419 0 112 -23 204 -106 431 -35 95 -73 206 -83 247
-79 301 -38 503 123 595 44 26 61 30 125 30 114 0 217 32 327 103 l42 26 126
-79 c126 -79 285 -169 401 -229 33 -16 53 -30 44 -31 -16 0 -227 -210 -296
-295 -59 -72 -130 -186 -165 -263 -68 -151 -95 -346 -67 -484 28 -136 105
-373 242 -748 130 -356 176 -523 198 -713 19 -174 -9 -320 -86 -448 -58 -95
-177 -212 -319 -315 -220 -158 -324 -261 -432 -421 -97 -147 -226 -427 -261
-572 -23 -92 -23 -324 -1 -406 30 -110 58 -172 122 -266 34 -52 95 -142 135
-202 88 -131 128 -156 196 -125 32 15 55 56 55 100 0 49 -48 140 -135 258
-135 182 -172 290 -163 473 7 123 39 229 127 411 119 247 243 392 476 556 266
188 422 381 486 601 16 55 22 112 26 220 10 264 -36 448 -260 1059 -141 385
-190 560 -189 680 1 209 97 378 371 650 91 91 164 169 163 174 -2 4 12 6 30 2
18 -3 87 -9 153 -12 211 -12 404 44 505 146 75 75 95 132 95 265 -1 128 -26
220 -104 380 -96 196 -208 354 -441 620 -173 198 -244 295 -300 410 -62 125
-96 244 -116 399 -8 67 -24 177 -34 246 -33 209 -42 424 -30 673 5 122 12 245
15 272 3 28 10 147 15 266 18 450 -27 806 -144 1124 -50 134 -331 699 -402
805 -401 604 -1211 1130 -2292 1489 -400 133 -686 204 -987 247 -130 18 -598
27 -725 14z"/>
</g>
</svg>
